<svg width="180" height="144" viewBox="0 0 180 144" fill="none" xmlns="http://www.w3.org/2000/svg">
<path d="M83.0659 41.7542C83.0659 18.6933 64.4679 0 41.532 0C18.596 0 0 18.6933 0 41.7542C0 64.3325 17.834 82.6819 40.1 83.442C37.406 101.751 24.348 124.06 4.516 144C40.638 144.006 83.0659 92.2296 83.0659 41.7542Z" fill="#EDD489"/>
<path d="M138.464 0C115.53 0 96.9301 18.6933 96.9301 41.7542C96.9301 64.3325 114.764 82.6819 137.03 83.442C134.336 101.751 121.28 124.06 101.448 144C137.572 144.006 180 92.2296 180 41.7542C180 18.6933 161.404 0 138.464 0Z" fill="#EDD489"/>
</svg>
